<svg width="47" height="47" viewBox="0 0 47 47" fill="none" xmlns="http://www.w3.org/2000/svg">
<path d="M18.3228 12.591V18.323H12.5907V12.591H18.3228ZM21.1888 9.72496H9.72471V21.189H21.1888V9.72496ZM18.3228 27.8764V33.6085H12.5907V27.8764H18.3228ZM21.1888 25.0104H9.72471V36.4745H21.1888V25.0104ZM33.6082 12.591V18.323H27.8762V12.591H33.6082ZM36.4742 9.72496H25.0102V21.189H36.4742V9.72496ZM25.0102 25.0104H27.8762V27.8764H25.0102V25.0104ZM27.8762 27.8764H30.7422V30.7424H27.8762V27.8764ZM30.7422 25.0104H33.6082V27.8764H30.7422V25.0104ZM25.0102 30.7424H27.8762V33.6085H25.0102V30.7424ZM27.8762 33.6085H30.7422V36.4745H27.8762V33.6085ZM30.7422 30.7424H33.6082V33.6085H30.7422V30.7424ZM33.6082 27.8764H36.4742V30.7424H33.6082V27.8764ZM33.6082 33.6085H36.4742V36.4745H33.6082V33.6085ZM40.2956 13.5463C39.2447 13.5463 38.3849 12.6865 38.3849 11.6356V7.81428H34.5635C33.5127 7.81428 32.6529 6.95447 32.6529 5.9036C32.6529 4.85273 33.5127 3.99292 34.5635 3.99292H40.2956C41.3465 3.99292 42.2063 4.85273 42.2063 5.9036V11.6356C42.2063 12.6865 41.3465 13.5463 40.2956 13.5463ZM42.2063 40.2958V34.5638C42.2063 33.5129 41.3465 32.6531 40.2956 32.6531C39.2447 32.6531 38.3849 33.5129 38.3849 34.5638V38.3852H34.5635C33.5127 38.3852 32.6529 39.245 32.6529 40.2958C32.6529 41.3467 33.5127 42.2065 34.5635 42.2065H40.2956C41.3465 42.2065 42.2063 41.3467 42.2063 40.2958ZM5.90336 42.2065H11.6354C12.6863 42.2065 13.5461 41.3467 13.5461 40.2958C13.5461 39.245 12.6863 38.3852 11.6354 38.3852H7.81403V34.5638C7.81403 33.5129 6.95423 32.6531 5.90336 32.6531C4.85248 32.6531 3.99268 33.5129 3.99268 34.5638V40.2958C3.99268 41.3467 4.85248 42.2065 5.90336 42.2065ZM3.99268 5.9036V11.6356C3.99268 12.6865 4.85248 13.5463 5.90336 13.5463C6.95423 13.5463 7.81403 12.6865 7.81403 11.6356V7.81428H11.6354C12.6863 7.81428 13.5461 6.95447 13.5461 5.9036C13.5461 4.85273 12.6863 3.99292 11.6354 3.99292H5.90336C4.85248 3.99292 3.99268 4.85273 3.99268 5.9036Z" fill="white"/>
</svg>
